<svg width="500" height="500" viewBox="0 0 500 500" fill="none" xmlns="http://www.w3.org/2000/svg">
<path d="M500 382.65H0V382.4H500V382.65Z" fill="#EBEBEB"/>
<path d="M111.667 391.037H78.5435V390.787H111.667V391.037Z" fill="#EBEBEB"/>
<path d="M163.5 398.25H133.333V398H163.5V398.25Z" fill="#EBEBEB"/>
<path d="M95.1064 400.324H56.853V400.074H95.1064V400.324Z" fill="#EBEBEB"/>
<path d="M449.9 399.777H434V399.527H449.9V399.777Z" fill="#EBEBEB"/>
<path d="M430.793 399.777H391.47V399.527H430.793V399.777Z" fill="#EBEBEB"/>
<path d="M280.333 390.914H250V390.664H280.333V390.914Z" fill="#EBEBEB"/>
<path d="M356.763 390.914H284.667V390.664H356.763V390.914Z" fill="#EBEBEB"/>
<path d="M239.247 216.87C241.253 213.54 246.49 210.85 250.987 210.85C252.07 210.85 253.007 211.01 253.787 211.293C256.837 208.853 261.203 207.173 265.11 207.173C269.83 207.173 272.323 209.63 271.36 212.917C275.677 213.127 277.57 215.867 275.59 219.217C273.527 222.703 268.043 225.53 263.347 225.53H236.27C232.94 225.53 231.423 223.527 232.887 221.053C234.017 219.143 236.593 217.513 239.247 216.87Z" fill="white"/>
<path d="M354.817 382.397H385.677V166.507H354.817V382.397Z" fill="#D7D7D7"/>
<path d="M330.434 382.397H358.28V209.847L330.434 251.923V382.397Z" fill="#D7D7D7"/>
<path d="M395.197 382.397H426.053V237.817H395.197V382.397Z" fill="#D7D7D7"/>
<path d="M305.82 382.397H321.55V219.793H305.82V382.397Z" fill="#D7D7D7"/>
<path d="M283.394 382.397H299.124V261.327H283.394V382.397Z" fill="#D7D7D7"/>
<path d="M271.5 382.397H287.23V301.097H271.5V382.397Z" fill="#D7D7D7"/>
<path d="M206.213 382.397H221.943V301.097H206.213V382.397Z" fill="#D7D7D7"/>
<path d="M221.267 382.397H236.997V326.76H221.267V382.397Z" fill="#D7D7D7"/>
<path d="M430.38 382.397H446.11V301.097H430.38V382.397Z" fill="#D7D7D7"/>
<path d="M294.684 382.397H437.08V287.577H294.684V382.397Z" fill="#D7D7D7"/>
<path d="M206.213 382.397H348.613V344.394H206.213V382.397Z" fill="#D7D7D7"/>
<path d="M192.254 382.397H143.124V202.664H192.254V382.397Z" fill="#DEDEDE"/>
<path d="M231.077 382.396H186.74V238.743L231.077 273.773V382.396Z" fill="#DEDEDE"/>
<path d="M127.967 382.397H78.8403V247.027H127.967V382.397Z" fill="#DEDEDE"/>
<path d="M270.26 382.397H245.217V247.027H270.26V382.397Z" fill="#DEDEDE"/>
<path d="M305.967 382.397H280.923V292.067H305.967V382.397Z" fill="#DEDEDE"/>
<path d="M324.9 382.397H299.856V314.714H324.9V382.397Z" fill="#DEDEDE"/>
<path d="M428.84 382.397H403.796V314.714H428.84V382.397Z" fill="#DEDEDE"/>
<path d="M404.877 382.397H379.83V336.077H404.877V382.397Z" fill="#DEDEDE"/>
<path d="M71.9501 382.397H46.9067V314.714H71.9501V382.397Z" fill="#DEDEDE"/>
<path d="M287.994 382.397H61.2837V278.153H287.994V382.397Z" fill="#DEDEDE"/>
<path d="M428.84 382.397H202.133V350.757H428.84V382.397Z" fill="#DEDEDE"/>
<path d="M473.923 82.8035C473.923 69.3702 463.033 58.4802 449.6 58.4802C444.76 58.4802 440.257 59.9002 436.467 62.3368C429.547 50.9568 417.027 43.3535 402.733 43.3535C394.923 43.3535 387.653 45.6335 381.527 49.5468C378.433 47.0335 374.493 45.5202 370.197 45.5202C362.91 45.5202 356.65 49.8635 353.827 56.0935C352.9 56.0168 351.967 55.9702 351.023 55.9702C343.607 55.9702 336.74 58.3035 331.103 62.2702C326.7 53.8068 317.86 48.0202 307.66 48.0202C299.59 48.0202 292.37 51.6435 287.527 57.3502C282.313 52.9935 275.603 50.3702 268.28 50.3702C261.47 50.3702 255.193 52.6402 250.153 56.4602C249.043 40.8802 236.06 28.5835 220.197 28.5835C209.82 28.5835 200.673 33.8435 195.273 41.8468C193.16 41.3735 190.967 41.1168 188.71 41.1168C179.753 41.1168 171.717 45.0435 166.213 51.2602C161.133 48.3468 155.253 46.6702 148.977 46.6702C138.38 46.6702 128.9 51.4268 122.537 58.9168C115.693 53.2002 106.883 49.7535 97.2667 49.7535C89.0767 49.7535 81.47 52.2535 75.1633 56.5235C71.9867 53.6968 67.8133 51.9635 63.2233 51.9635C54.9 51.9635 47.9167 57.6302 45.87 65.3102C34.6033 67.4335 26.0767 77.3202 26.0767 89.2035C26.0767 102.637 36.9667 113.527 50.4 113.527C55.24 113.527 59.7467 112.107 63.5333 109.67C70.4533 121.05 82.9733 128.653 97.2667 128.653C105.077 128.653 112.347 126.373 118.473 122.46C121.567 124.973 125.507 126.487 129.803 126.487C137.09 126.487 143.35 122.143 146.173 115.913C147.1 115.987 148.033 116.037 148.977 116.037C156.393 116.037 163.26 113.7 168.897 109.737C173.3 118.2 182.14 123.983 192.34 123.983C200.41 123.983 207.63 120.36 212.473 114.657C216.317 117.87 220.977 120.133 226.093 121.103C230.62 129.153 239.237 134.597 249.13 134.597C263.253 134.597 274.787 123.517 275.507 109.573C283.017 107.717 289.41 103.04 293.5 96.7268C297.593 99.3301 302.45 100.847 307.66 100.847C311.087 100.847 314.353 100.187 317.357 99.0002C321.097 114.123 334.747 125.337 351.023 125.337C361.62 125.337 371.1 120.577 377.463 113.087C384.307 118.807 393.117 122.25 402.733 122.25C410.923 122.25 418.53 119.753 424.837 115.48C428.013 118.31 432.187 120.043 436.777 120.043C445.1 120.043 452.083 114.377 454.13 106.697C465.397 104.573 473.923 94.6868 473.923 82.8035Z" fill="#E6E6E6"/>
<path d="M443.89 416.236C443.89 422.493 357.083 427.56 250 427.56C142.917 427.56 56.1099 422.493 56.1099 416.236C56.1099 409.983 142.917 404.913 250 404.913C357.083 404.913 443.89 409.983 443.89 416.236Z" fill="#F5F5F5"/>
<g opacity="0.302">
<path opacity="0.302" d="M30.0669 294.534C30.0303 294.534 29.9936 294.53 29.9569 294.52C29.7303 294.46 29.5969 294.23 29.6569 294.004C31.6536 286.47 33.4536 279.473 35.1569 272.61C35.2136 272.383 35.4436 272.243 35.6703 272.303C35.8969 272.357 36.0336 272.587 35.9769 272.813C34.2736 279.68 32.4736 286.683 30.4736 294.22C30.4236 294.41 30.2536 294.534 30.0669 294.534Z" fill="#407BFF"/>
<path opacity="0.302" d="M40.0637 216.053C40.0337 216.053 40.0037 216.05 39.9704 216.043C39.7437 215.99 39.6004 215.763 39.6537 215.537C40.9537 209.8 42.4537 203.8 44.2337 197.19C44.2937 196.963 44.527 196.83 44.7537 196.89C44.9804 196.95 45.1137 197.183 45.0537 197.41C43.2704 204.01 41.7771 210 40.4771 215.723C40.4337 215.92 40.2571 216.053 40.0637 216.053Z" fill="#407BFF"/>
<path opacity="0.302" d="M30.5269 175.614C30.4869 175.614 30.4469 175.61 30.4103 175.597C30.1836 175.534 30.0569 175.297 30.1203 175.074C30.8769 172.457 31.6403 169.84 32.4103 167.227C32.4769 167.004 32.7103 166.877 32.9369 166.944C33.1603 167.007 33.2869 167.244 33.2236 167.467C32.4536 170.08 31.6869 172.694 30.9336 175.307C30.8803 175.494 30.7103 175.614 30.5269 175.614Z" fill="#407BFF"/>
<path opacity="0.302" d="M27.4403 134.357C27.4003 134.357 27.3603 134.35 27.3203 134.34C27.0969 134.273 26.9669 134.037 27.0336 133.813C30.7403 121.31 34.6236 107.967 37.7803 94.4299C37.8336 94.2032 38.0603 94.0599 38.2869 94.1132C38.5169 94.1665 38.6569 94.3932 38.6036 94.6232C35.4403 108.18 31.5569 121.537 27.8469 134.053C27.7903 134.237 27.6236 134.357 27.4403 134.357Z" fill="#407BFF"/>
<path opacity="0.302" d="M75.7032 106.47C75.6632 106.47 75.6299 106.467 75.5899 106.457C75.3665 106.393 75.2332 106.163 75.2932 105.937L76.9165 99.8832C76.9765 99.6566 77.2099 99.5232 77.4332 99.5866C77.6599 99.6466 77.7932 99.8766 77.7332 100.103L76.1099 106.157C76.0599 106.347 75.8865 106.47 75.7032 106.47Z" fill="#407BFF"/>
<path opacity="0.302" d="M59.1836 71.6202C59.147 71.6202 59.1103 71.6169 59.0736 71.6069C58.847 71.5469 58.7136 71.3135 58.7736 71.0902L61.2836 61.6702C61.3436 61.4435 61.5736 61.3135 61.8003 61.3702C62.027 61.4302 62.1603 61.6602 62.1003 61.8868L59.5903 71.3068C59.5403 71.4968 59.3703 71.6202 59.1836 71.6202Z" fill="#407BFF"/>
<path opacity="0.302" d="M69.3939 33.5401C69.3572 33.5401 69.3172 33.5368 69.2805 33.5234C69.0539 33.4601 68.9239 33.2268 68.9872 33.0034C70.6805 26.9501 72.3572 20.8934 74.0172 14.8301C74.0805 14.6068 74.3072 14.4734 74.5372 14.5334C74.7639 14.5968 74.8939 14.8301 74.8339 15.0534C73.1705 21.1168 71.4972 27.1768 69.8005 33.2301C69.7472 33.4168 69.5772 33.5401 69.3939 33.5401Z" fill="#407BFF"/>
<path opacity="0.302" d="M41.1905 407.754C41.1538 407.754 41.1171 407.747 41.0805 407.737C40.8538 407.677 40.7205 407.444 40.7805 407.22C42.1738 402.06 43.5705 396.907 44.9705 391.75C45.0305 391.524 45.2638 391.394 45.4905 391.454C45.7138 391.514 45.8471 391.747 45.7871 391.974C44.3871 397.127 42.9905 402.284 41.6005 407.44C41.5471 407.627 41.3771 407.754 41.1905 407.754Z" fill="#407BFF"/>
<path opacity="0.302" d="M32.6272 355.681C32.5906 355.681 32.5506 355.677 32.5139 355.664C32.2872 355.604 32.1572 355.371 32.2172 355.144C34.1739 347.987 36.1372 340.83 38.1006 333.674C38.1639 333.447 38.3939 333.314 38.6206 333.377C38.8472 333.437 38.9806 333.67 38.9172 333.897C36.9539 341.054 34.9906 348.21 33.0339 355.367C32.9839 355.557 32.8106 355.681 32.6272 355.681Z" fill="#407BFF"/>
<path opacity="0.302" d="M59.1568 341.957C59.1201 341.957 59.0801 341.95 59.0435 341.94C58.8201 341.877 58.6868 341.643 58.7468 341.42L63.1601 325.35C63.2235 325.127 63.4601 324.993 63.6801 325.053C63.9068 325.117 64.0401 325.35 63.9768 325.573L59.5635 341.643C59.5135 341.83 59.3435 341.957 59.1568 341.957Z" fill="#407BFF"/>
<path opacity="0.302" d="M105.304 323.9C105.267 323.9 105.23 323.893 105.19 323.883C104.967 323.823 104.834 323.59 104.894 323.363L106.537 317.353C106.6 317.127 106.837 316.993 107.057 317.057C107.284 317.117 107.417 317.35 107.354 317.577L105.71 323.587C105.66 323.777 105.49 323.9 105.304 323.9Z" fill="#407BFF"/>
<path opacity="0.302" d="M92.7037 280.39C92.667 280.39 92.6303 280.383 92.5937 280.373C92.367 280.313 92.2337 280.08 92.297 279.856C94.117 273.123 95.9303 266.386 97.7303 259.646C97.7903 259.42 98.0237 259.286 98.247 259.346C98.4737 259.406 98.607 259.64 98.547 259.866C96.747 266.606 94.9337 273.343 93.1137 280.076C93.0603 280.266 92.8903 280.39 92.7037 280.39Z" fill="#407BFF"/>
<path opacity="0.302" d="M95.4205 223.617C95.3872 223.617 95.3505 223.61 95.3139 223.6C95.0872 223.543 94.9539 223.31 95.0139 223.083C95.9005 219.71 96.7805 216.337 97.6605 212.963C97.7205 212.737 97.9539 212.6 98.1772 212.66C98.4039 212.72 98.5372 212.95 98.4805 213.177C97.6005 216.553 96.7172 219.927 95.8305 223.3C95.7805 223.49 95.6105 223.617 95.4205 223.617Z" fill="#407BFF"/>
<path opacity="0.302" d="M62.1538 238C62.1138 238 62.0771 237.997 62.0371 237.987C61.8138 237.923 61.6805 237.687 61.7438 237.463L64.5805 227.39C64.6438 227.167 64.8738 227.037 65.1038 227.097C65.3271 227.16 65.4605 227.393 65.3938 227.62L62.5605 237.693C62.5071 237.88 62.3371 238 62.1538 238Z" fill="#407BFF"/>
<path opacity="0.302" d="M118.033 179.057C117.993 179.057 117.95 179.05 117.91 179.037C117.687 178.97 117.56 178.734 117.63 178.51C118.103 176.957 118.57 175.404 119.03 173.847C119.097 173.624 119.33 173.497 119.557 173.56C119.78 173.627 119.907 173.864 119.84 174.087C119.38 175.647 118.913 177.204 118.44 178.757C118.383 178.937 118.217 179.057 118.033 179.057Z" fill="#407BFF"/>
<path opacity="0.302" d="M113.56 161.084C113.52 161.084 113.484 161.077 113.447 161.067C113.22 161.004 113.09 160.774 113.15 160.547C113.69 158.594 114.22 156.64 114.744 154.687C114.807 154.46 115.04 154.327 115.264 154.387C115.49 154.447 115.624 154.68 115.564 154.904C115.037 156.864 114.504 158.817 113.967 160.77C113.914 160.96 113.744 161.084 113.56 161.084Z" fill="#407BFF"/>
<path opacity="0.302" d="M128.427 141.503C128.39 141.503 128.357 141.497 128.32 141.49C128.094 141.43 127.957 141.2 128.017 140.973C129.157 136.537 130.287 132.097 131.414 127.653C131.47 127.427 131.704 127.293 131.927 127.347C132.154 127.407 132.29 127.637 132.234 127.863C131.107 132.303 129.98 136.747 128.837 141.183C128.787 141.377 128.614 141.503 128.427 141.503Z" fill="#407BFF"/>
<path opacity="0.302" d="M106.127 122.824C106.09 122.824 106.053 122.82 106.02 122.81C105.793 122.75 105.657 122.52 105.713 122.294C106.343 119.854 106.973 117.414 107.61 114.974C107.67 114.747 107.903 114.614 108.127 114.67C108.353 114.73 108.487 114.96 108.43 115.187C107.793 117.627 107.16 120.064 106.533 122.507C106.487 122.697 106.313 122.824 106.127 122.824Z" fill="#407BFF"/>
<path opacity="0.302" d="M139.76 95.7037C139.724 95.7037 139.687 95.6971 139.65 95.6871C139.424 95.6271 139.29 95.3937 139.354 95.1671C141.267 88.2337 143.09 81.9704 144.927 76.0171C144.994 75.7937 145.23 75.6671 145.454 75.7371C145.677 75.8037 145.804 76.0404 145.734 76.2637C143.9 82.2104 142.08 88.4671 140.17 95.3937C140.117 95.5804 139.947 95.7037 139.76 95.7037Z" fill="#407BFF"/>
<path opacity="0.302" d="M139.27 48.4069C139.24 48.4069 139.207 48.4035 139.174 48.3969C138.947 48.3435 138.807 48.1169 138.86 47.8902C140.877 39.2302 143.08 30.5869 145.414 22.2035C145.477 21.9769 145.704 21.8435 145.934 21.9069C146.157 21.9702 146.29 22.2035 146.227 22.4269C143.9 30.8035 141.7 39.4335 139.684 48.0802C139.637 48.2769 139.464 48.4069 139.27 48.4069Z" fill="#407BFF"/>
<path opacity="0.302" d="M86.0172 365.48C85.9905 365.48 85.9605 365.48 85.9339 365.473C85.7039 365.427 85.5572 365.203 85.6039 364.973C86.2372 361.867 87.0839 358.543 88.1939 354.817C88.2572 354.59 88.4939 354.463 88.7172 354.53C88.9439 354.597 89.0705 354.833 89.0039 355.057C87.9005 358.76 87.0605 362.06 86.4339 365.143C86.3905 365.343 86.2139 365.48 86.0172 365.48Z" fill="#407BFF"/>
<path opacity="0.302" d="M119.24 393.8C119.197 393.8 119.154 393.794 119.114 393.78C118.89 393.71 118.767 393.474 118.837 393.25C119.64 390.724 120.31 388.484 120.884 386.404C120.947 386.177 121.177 386.047 121.404 386.107C121.63 386.17 121.764 386.404 121.7 386.627C121.124 388.72 120.454 390.97 119.644 393.507C119.587 393.687 119.42 393.8 119.24 393.8Z" fill="#407BFF"/>
<path opacity="0.302" d="M129.244 357.363C129.207 357.363 129.17 357.357 129.134 357.347C128.907 357.287 128.774 357.057 128.837 356.83C130.88 349.197 132.92 341.563 134.96 333.93C135.02 333.703 135.257 333.57 135.48 333.63C135.707 333.69 135.84 333.923 135.78 334.15C133.74 341.783 131.697 349.417 129.654 357.05C129.6 357.237 129.43 357.363 129.244 357.363Z" fill="#407BFF"/>
<path opacity="0.302" d="M161.613 320.06C161.577 320.06 161.54 320.057 161.503 320.047C161.277 319.987 161.143 319.753 161.203 319.53L164.08 308.754C164.14 308.527 164.373 308.39 164.6 308.453C164.827 308.513 164.96 308.743 164.9 308.97L162.02 319.747C161.97 319.937 161.8 320.06 161.613 320.06Z" fill="#407BFF"/>
<path opacity="0.302" d="M150.304 278.577C150.267 278.577 150.23 278.571 150.194 278.561C149.967 278.501 149.834 278.271 149.894 278.044C151.214 273.107 152.537 268.174 153.864 263.237C153.924 263.011 154.157 262.877 154.38 262.937C154.607 262.997 154.74 263.231 154.68 263.457C153.357 268.391 152.034 273.327 150.71 278.264C150.66 278.451 150.49 278.577 150.304 278.577Z" fill="#407BFF"/>
<path opacity="0.302" d="M134.917 225.297C134.88 225.297 134.844 225.293 134.807 225.283C134.58 225.22 134.447 224.99 134.507 224.763L135.417 221.4C135.477 221.173 135.707 221.043 135.934 221.1C136.16 221.163 136.294 221.393 136.234 221.62L135.324 224.984C135.274 225.174 135.104 225.297 134.917 225.297Z" fill="#407BFF"/>
<path opacity="0.302" d="M172.781 204.037C172.744 204.037 172.704 204.034 172.667 204.02C172.441 203.96 172.311 203.727 172.371 203.5L173.484 199.464C173.544 199.237 173.777 199.107 174.004 199.167C174.231 199.23 174.364 199.464 174.301 199.687L173.187 203.727C173.137 203.914 172.964 204.037 172.781 204.037Z" fill="#407BFF"/>
<path opacity="0.302" d="M85.1372 168.81C85.0972 168.81 85.0605 168.807 85.0205 168.793C84.7972 168.73 84.6639 168.497 84.7272 168.273C86.1705 163.12 87.6172 157.967 89.0739 152.817C89.1372 152.593 89.3705 152.463 89.5972 152.523C89.8205 152.587 89.9505 152.823 89.8872 153.047C88.4339 158.197 86.9839 163.347 85.5439 168.5C85.4905 168.687 85.3205 168.81 85.1372 168.81Z" fill="#407BFF"/>
<path opacity="0.302" d="M181.517 104.664C181.48 104.664 181.443 104.66 181.407 104.65C181.18 104.587 181.047 104.357 181.11 104.13L186.993 82.5769C187.053 82.3502 187.287 82.2202 187.51 82.2802C187.737 82.3436 187.87 82.5736 187.807 82.8002L181.927 104.354C181.873 104.54 181.703 104.664 181.517 104.664Z" fill="#407BFF"/>
<path opacity="0.302" d="M200.667 83.4901C200.63 83.4901 200.59 83.4835 200.553 83.4735C200.327 83.4135 200.197 83.1801 200.257 82.9535L202.83 73.5268C202.89 73.3001 203.123 73.1668 203.35 73.2301C203.577 73.2901 203.707 73.5234 203.647 73.7468L201.073 83.1768C201.023 83.3668 200.85 83.4901 200.667 83.4901Z" fill="#407BFF"/>
<path opacity="0.302" d="M213.037 49.0367C212.993 49.0367 212.953 49.03 212.913 49.02C212.69 48.95 212.563 48.7134 212.63 48.49C213.467 45.7567 214.093 42.9367 214.703 40.21C215.407 37.06 216.13 33.8033 217.183 30.63C217.257 30.41 217.493 30.29 217.717 30.3633C217.94 30.4367 218.06 30.6767 217.987 30.8967C216.947 34.03 216.227 37.2633 215.53 40.3933C214.917 43.1367 214.283 45.9734 213.44 48.7367C213.383 48.92 213.217 49.0367 213.037 49.0367Z" fill="#407BFF"/>
<path opacity="0.302" d="M161.34 382.744C161.3 382.744 161.26 382.737 161.223 382.727C160.997 382.66 160.867 382.427 160.933 382.204C161.507 380.227 162.077 378.25 162.643 376.27C162.71 376.047 162.94 375.917 163.17 375.98C163.393 376.047 163.523 376.28 163.46 376.504C162.89 378.484 162.32 380.46 161.747 382.437C161.693 382.624 161.523 382.744 161.34 382.744Z" fill="#407BFF"/>
<path opacity="0.302" d="M254.883 17.2201C254.847 17.2201 254.81 17.2135 254.773 17.2035C254.547 17.1435 254.413 16.9101 254.477 16.6835L257.76 4.65013C257.823 4.42347 258.057 4.29347 258.28 4.35347C258.507 4.41347 258.64 4.6468 258.577 4.87347L255.293 16.9068C255.24 17.0968 255.07 17.2201 254.883 17.2201Z" fill="#407BFF"/>
<path opacity="0.302" d="M292.524 34.1901C292.487 34.1901 292.447 34.1868 292.41 34.1734C292.187 34.1134 292.054 33.8801 292.117 33.6534C293.31 29.3201 294.454 24.8901 295.56 20.6068C296.11 18.4668 296.664 16.3234 297.224 14.1868C297.284 13.9601 297.514 13.8201 297.74 13.8834C297.967 13.9434 298.104 14.1734 298.044 14.4001C297.484 16.5368 296.93 18.6768 296.38 20.8201C295.274 25.1068 294.13 29.5368 292.93 33.8801C292.88 34.0668 292.71 34.1901 292.524 34.1901Z" fill="#407BFF"/>
<path opacity="0.302" d="M331.31 269.26C331.26 269.26 331.21 269.25 331.16 269.233C330.94 269.15 330.83 268.907 330.914 268.687C333.62 261.497 335.52 253.923 337.36 246.6C337.9 244.45 338.44 242.3 339 240.157C339.057 239.93 339.29 239.797 339.517 239.853C339.74 239.913 339.877 240.143 339.817 240.37C339.257 242.513 338.72 244.66 338.18 246.807C336.337 254.153 334.427 261.75 331.704 268.987C331.64 269.157 331.48 269.26 331.31 269.26Z" fill="#407BFF"/>
<path opacity="0.302" d="M363.12 221.74C363.08 221.74 363.044 221.733 363.007 221.723C362.78 221.663 362.65 221.43 362.71 221.203L370.817 191.503C370.877 191.277 371.11 191.143 371.337 191.207C371.564 191.267 371.694 191.5 371.634 191.723L363.527 221.427C363.477 221.617 363.304 221.74 363.12 221.74Z" fill="#407BFF"/>
<path opacity="0.302" d="M363.36 100.61C363.324 100.61 363.287 100.603 363.25 100.593C363.024 100.533 362.89 100.3 362.954 100.073L369.647 75.5468C369.707 75.3201 369.944 75.1868 370.167 75.2501C370.39 75.3135 370.524 75.5435 370.464 75.7701L363.767 100.297C363.717 100.487 363.547 100.61 363.36 100.61Z" fill="#407BFF"/>
<path opacity="0.302" d="M359.82 53.0233C359.784 53.0233 359.747 53.0167 359.71 53.0067C359.484 52.9467 359.35 52.7133 359.41 52.4867C361.754 43.81 364.2 35 366.504 26.72C366.567 26.4933 366.8 26.3633 367.024 26.4267C367.25 26.4867 367.38 26.72 367.32 26.9467C365.017 35.2267 362.57 44.0333 360.23 52.71C360.177 52.8967 360.007 53.0233 359.82 53.0233Z" fill="#407BFF"/>
<path opacity="0.302" d="M433.22 391.607C433.18 391.607 433.14 391.6 433.104 391.59C432.88 391.527 432.747 391.293 432.81 391.067C433.93 387.127 435.044 383.187 436.144 379.24C436.207 379.017 436.44 378.884 436.664 378.947C436.89 379.01 437.02 379.244 436.96 379.467C435.857 383.414 434.747 387.357 433.627 391.3C433.574 391.484 433.404 391.607 433.22 391.607Z" fill="#407BFF"/>
<path opacity="0.302" d="M412.544 345.914C412.507 345.914 412.471 345.907 412.434 345.9C412.207 345.837 412.074 345.607 412.134 345.38C414.064 338.207 415.977 331.027 417.881 323.847C417.941 323.62 418.174 323.487 418.397 323.547C418.624 323.607 418.757 323.84 418.697 324.064C416.797 331.247 414.884 338.427 412.951 345.6C412.901 345.79 412.731 345.914 412.544 345.914Z" fill="#407BFF"/>
<path opacity="0.302" d="M340.357 394.363C340.32 394.363 340.283 394.357 340.25 394.347C340.023 394.29 339.887 394.057 339.947 393.83L343.777 379.247C343.837 379.02 344.07 378.883 344.293 378.943C344.52 379.003 344.657 379.237 344.597 379.46L340.767 394.047C340.717 394.237 340.543 394.363 340.357 394.363Z" fill="#407BFF"/>
<path opacity="0.302" d="M318.763 331.187C318.727 331.187 318.69 331.18 318.657 331.17C318.43 331.11 318.293 330.88 318.353 330.653C319.637 325.793 320.923 320.937 322.214 316.08C322.274 315.857 322.504 315.723 322.734 315.78C322.957 315.84 323.093 316.073 323.033 316.3C321.74 321.153 320.454 326.013 319.173 330.87C319.123 331.06 318.95 331.187 318.763 331.187Z" fill="#407BFF"/>
<path opacity="0.302" d="M367.173 353.887C367.137 353.887 367.1 353.883 367.063 353.873C366.837 353.813 366.703 353.58 366.763 353.353C369.993 341.34 372.947 330.547 375.797 320.357C375.86 320.13 376.093 320 376.32 320.063C376.543 320.127 376.677 320.36 376.613 320.583C373.763 330.77 370.81 341.563 367.58 353.573C367.53 353.763 367.36 353.887 367.173 353.887Z" fill="#407BFF"/>
<path opacity="0.302" d="M369.11 287.967C369.07 287.967 369.034 287.96 368.994 287.95C368.767 287.883 368.637 287.65 368.704 287.427C370.434 281.4 372.167 275.45 373.86 269.74C373.927 269.517 374.164 269.39 374.387 269.457C374.61 269.523 374.74 269.757 374.674 269.98C372.98 275.687 371.247 281.637 369.517 287.66C369.464 287.843 369.293 287.967 369.11 287.967Z" fill="#407BFF"/>
<path opacity="0.302" d="M391.097 257.96C391.064 257.96 391.034 257.957 391 257.95C390.77 257.894 390.63 257.667 390.687 257.44C393.66 244.887 397.234 232.334 400.654 220.637C400.717 220.414 400.954 220.284 401.177 220.347C401.404 220.414 401.53 220.65 401.464 220.874C398.05 232.56 394.48 245.1 391.507 257.634C391.464 257.83 391.29 257.96 391.097 257.96Z" fill="#407BFF"/>
<path opacity="0.302" d="M424.9 210.183C424.86 210.183 424.82 210.177 424.78 210.167C424.556 210.1 424.426 209.867 424.493 209.64C425.853 205.01 427.206 200.38 428.53 195.737C428.593 195.513 428.826 195.383 429.053 195.447C429.276 195.51 429.406 195.743 429.343 195.97C428.02 200.613 426.666 205.247 425.306 209.88C425.25 210.063 425.083 210.183 424.9 210.183Z" fill="#407BFF"/>
<path opacity="0.302" d="M433.144 180.984C433.107 180.984 433.074 180.98 433.037 180.97C432.811 180.91 432.674 180.68 432.734 180.454C434.037 175.49 435.177 170.897 436.214 166.41C436.267 166.184 436.497 166.037 436.724 166.094C436.951 166.147 437.094 166.374 437.041 166.604C436.001 171.097 434.861 175.697 433.554 180.67C433.504 180.86 433.331 180.984 433.144 180.984Z" fill="#407BFF"/>
<path opacity="0.302" d="M373.296 154.247C373.26 154.247 373.22 154.24 373.183 154.23C372.96 154.17 372.826 153.937 372.886 153.71L382.463 118.63C382.523 118.403 382.753 118.267 382.983 118.333C383.206 118.393 383.34 118.627 383.28 118.85L373.703 153.933C373.653 154.123 373.483 154.247 373.296 154.247Z" fill="#407BFF"/>
<path opacity="0.302" d="M434.47 127.847C434.434 127.847 434.397 127.84 434.36 127.83C434.134 127.77 434 127.537 434.064 127.31L438.377 111.507C438.437 111.28 438.67 111.15 438.894 111.21C439.12 111.274 439.254 111.504 439.19 111.73L434.88 127.534C434.827 127.724 434.657 127.847 434.47 127.847Z" fill="#407BFF"/>
<path opacity="0.302" d="M426.117 81.0136C426.08 81.0136 426.04 81.007 426.003 80.997C425.78 80.937 425.647 80.7036 425.707 80.477L427.257 74.8036C427.32 74.577 427.553 74.4436 427.777 74.507C428.003 74.567 428.133 74.8003 428.073 75.0236L426.523 80.7003C426.473 80.8903 426.303 81.0136 426.117 81.0136Z" fill="#407BFF"/>
<path opacity="0.302" d="M402.001 52.4503C401.964 52.4503 401.927 52.447 401.891 52.437C401.664 52.377 401.531 52.1436 401.591 51.917C403.524 44.7036 405.481 37.497 407.447 30.2936C407.507 30.0703 407.737 29.9336 407.967 29.997C408.194 30.0603 408.327 30.2903 408.264 30.517C406.294 37.7203 404.341 44.9236 402.407 52.137C402.357 52.327 402.187 52.4503 402.001 52.4503Z" fill="#407BFF"/>
<path opacity="0.302" d="M465.657 37.4902C465.62 37.4902 465.583 37.4835 465.547 37.4735C465.32 37.4102 465.187 37.1802 465.25 36.9535L466.267 33.2535C467.8 27.6668 469.337 22.0768 470.867 16.4868C470.927 16.2635 471.16 16.1302 471.387 16.1935C471.61 16.2535 471.743 16.4868 471.68 16.7135C470.153 22.3035 468.617 27.8902 467.083 33.4802L466.067 37.1768C466.013 37.3668 465.843 37.4902 465.657 37.4902Z" fill="#407BFF"/>
<path opacity="0.302" d="M448.707 270.377C448.667 270.377 448.63 270.37 448.594 270.36C448.367 270.3 448.234 270.067 448.297 269.84C451.12 259.573 453.94 249.303 456.754 239.033C456.817 238.81 457.047 238.677 457.274 238.737C457.5 238.8 457.634 239.033 457.57 239.257C454.757 249.527 451.937 259.797 449.114 270.067C449.06 270.253 448.89 270.377 448.707 270.377Z" fill="#407BFF"/>
<path opacity="0.302" d="M464.374 165.814C464.337 165.814 464.297 165.807 464.264 165.797C464.037 165.737 463.904 165.507 463.964 165.28C467.151 153.42 469.751 143.607 472.151 134.397C472.211 134.17 472.441 134.034 472.667 134.094C472.894 134.154 473.027 134.384 472.971 134.61C470.571 143.824 467.967 153.64 464.781 165.5C464.731 165.69 464.561 165.814 464.374 165.814Z" fill="#407BFF"/>
<path opacity="0.302" d="M112.577 24.2235C112.541 24.2235 112.501 24.2202 112.464 24.2102C112.241 24.1468 112.107 23.9168 112.167 23.6902L114.134 16.4902C114.194 16.2635 114.431 16.1302 114.654 16.1935C114.881 16.2535 115.011 16.4868 114.951 16.7102L112.984 23.9135C112.934 24.1002 112.764 24.2235 112.577 24.2235Z" fill="#407BFF"/>
<path opacity="0.302" d="M434.934 23.4232C434.898 23.4232 434.861 23.4166 434.824 23.4066C434.597 23.3466 434.464 23.1132 434.527 22.8866L437.914 10.4799C437.974 10.2532 438.208 10.1199 438.431 10.1832C438.658 10.2432 438.791 10.4766 438.731 10.7032L435.344 23.1099C435.291 23.2999 435.121 23.4232 434.934 23.4232Z" fill="#407BFF"/>
<path opacity="0.302" d="M457.163 54.7336C457.127 54.7336 457.09 54.7303 457.053 54.7203C456.83 54.6603 456.693 54.4303 456.753 54.2036C457.157 52.677 457.57 51.1503 457.99 49.6303C458.053 49.4036 458.283 49.2703 458.51 49.3336C458.737 49.397 458.867 49.6303 458.807 49.8536C458.387 51.3736 457.973 52.8936 457.573 54.4203C457.523 54.6103 457.35 54.7336 457.163 54.7336Z" fill="#407BFF"/>
<path opacity="0.302" d="M454.54 343.837C454.504 343.837 454.464 343.83 454.424 343.82C454.2 343.754 454.07 343.52 454.134 343.297C455.94 337.02 457.827 330.277 459.37 323.487C459.424 323.26 459.65 323.117 459.877 323.17C460.107 323.22 460.25 323.447 460.197 323.674C458.647 330.487 456.757 337.244 454.947 343.53C454.894 343.717 454.727 343.837 454.54 343.837Z" fill="#407BFF"/>
</g>
<path d="M308.594 188.007L305.747 188.44C304.677 188.604 303.75 189.274 303.26 190.24L300.977 194.754C300.063 196.56 300.08 198.697 301.024 200.487L301.607 201.594C304.787 201.33 307.997 199.887 311.24 197.257L312.754 196.287C314.097 195.424 314.507 193.747 313.687 192.434L311.804 189.417C311.154 188.374 309.877 187.814 308.594 188.007Z" fill="#FF8B7B"/>
<path d="M274.473 176.377L274.957 178.45L275.533 180.61C275.93 182.054 276.347 183.494 276.777 184.93C277.657 187.79 278.607 190.624 279.667 193.364C280.71 196.107 281.843 198.78 283.077 201.26C284.273 203.747 285.64 206.05 286.917 207.767L280.883 203.437C282.563 203.84 284.063 203.877 285.6 203.537C287.14 203.23 288.763 202.457 290.45 201.347C292.117 200.18 293.81 198.657 295.353 196.834C296.123 195.927 296.843 194.937 297.517 193.934C297.85 193.434 298.173 192.924 298.47 192.427C298.61 192.177 298.743 191.924 298.863 191.687L299.023 191.354C299.047 191.287 299.153 191.084 299.037 191.23L321.713 205.39C321.38 205.88 321.26 206.014 321.057 206.287L320.52 206.954L319.48 208.19C318.797 208.99 318.107 209.76 317.4 210.507C315.993 212.007 314.5 213.414 312.95 214.787C309.843 217.524 306.387 220.057 302.427 222.17C300.433 223.214 298.317 224.157 296.073 224.91C293.84 225.674 291.437 226.2 288.997 226.53C284.093 227.194 278.96 226.62 274.397 225.22L274.063 225.12C271.643 224.377 269.673 222.84 268.36 220.89C266.017 217.407 264.363 214.12 262.847 210.894C261.357 207.657 260.063 204.474 258.85 201.307C257.65 198.13 256.527 194.98 255.453 191.82C254.91 190.244 254.387 188.664 253.88 187.07L252.343 182.17L274.473 176.377Z" fill="#2A59C0"/>
<path d="M257.94 198.827C258.044 199.11 258.147 199.397 258.254 199.68L260.21 198.487C266.007 194.937 271.894 191.344 277.947 188.557C277.854 188.274 277.764 187.987 277.674 187.704C271.544 190.514 265.6 194.144 259.744 197.727L257.94 198.827Z" fill="white"/>
<path d="M307.481 199.434C307.091 200.001 306.717 200.547 306.381 201.067C303.514 205.504 301.451 210.584 300.417 215.764C299.777 218.967 300.227 221.234 301.754 222.501C301.757 222.501 301.761 222.504 301.764 222.507C301.984 222.394 302.211 222.287 302.424 222.171C302.504 222.127 302.577 222.081 302.657 222.037C302.544 221.964 302.427 221.901 302.321 221.814C301.067 220.774 300.721 218.797 301.291 215.937C302.304 210.867 304.324 205.894 307.127 201.551C307.461 201.037 307.831 200.497 308.217 199.937C308.677 199.267 309.157 198.564 309.621 197.841L308.864 197.367C308.411 198.081 307.934 198.774 307.481 199.434Z" fill="white"/>
<path d="M284.764 216.224C286.457 216.587 292.087 218.084 293.497 222.204C293.897 223.37 293.867 224.52 293.567 225.644C293.894 225.557 294.224 225.474 294.551 225.38C294.774 224.26 294.747 223.104 294.341 221.914C292.777 217.35 286.757 215.737 284.947 215.354C278.377 213.95 271.861 214.47 265.417 216.02C265.564 216.29 265.714 216.557 265.864 216.827C272.121 215.347 278.427 214.874 284.764 216.224Z" fill="white"/>
<path d="M264.333 144.917C270.44 142.81 270.883 138.94 265.67 133.307C266.296 135.55 265.13 136.39 262.17 135.83C257.696 134.984 265.223 120.78 257.65 122.957C251.276 122.324 250.99 149.524 264.333 144.917Z" fill="#263238"/>
<path d="M296.93 396.924C296.654 398.911 298.657 404.614 301.054 408.68L288.647 399.07C289.514 397.041 292.274 396.324 296.93 396.924Z" fill="#407BFF"/>
<path d="M213.027 398.29C211.9 399.994 209.54 405.28 209.887 409.974C201.31 409.187 203.42 403.624 204.64 396.87C206.32 395.37 209.113 395.844 213.027 398.29Z" fill="#407BFF"/>
<path d="M210.157 411.144C207.947 408.317 208.563 404.024 212.01 398.26C210.147 397.114 207.713 396.514 204.707 396.46C200.663 401.027 201.533 410.554 210.157 411.144Z" fill="#407BFF"/>
<path opacity="0.2" d="M210.157 411.144C207.947 408.317 208.563 404.024 212.01 398.26C210.147 397.114 207.713 396.514 204.707 396.46C200.663 401.027 201.533 410.554 210.157 411.144Z" fill="black"/>
<path d="M194.94 409.34C204.64 414.06 212.277 415.87 217.853 414.77C221.593 414.037 218.503 408.877 210.74 409.187C202.977 409.497 203.933 401.747 206.973 396.337C203.023 394.23 199.823 393.66 197.377 394.627C197.23 400.424 196.7 405.707 194.94 409.34Z" fill="#407BFF"/>
<path d="M194.877 411.044L206.19 415.007C208.863 415.94 211.693 416.42 214.557 416.42H218.57C218.933 416.42 219.243 416.12 219.26 415.757L219.3 414.704C219.313 414.337 219.023 414.037 218.66 414.037L215.347 414.077C212.353 414.114 209.393 413.627 206.603 412.64L195.55 408.734C195.2 408.644 194.83 408.86 194.727 409.214L194.427 410.234C194.323 410.587 194.523 410.954 194.877 411.044Z" fill="#407BFF"/>
<g opacity="0.502">
<path opacity="0.502" d="M194.877 411.044L206.19 415.007C208.863 415.94 211.693 416.42 214.557 416.42H218.57C218.933 416.42 219.243 416.12 219.26 415.757L219.3 414.704C219.313 414.337 219.023 414.037 218.66 414.037L215.347 414.077C212.353 414.114 209.393 413.627 206.603 412.64L195.55 408.734C195.2 408.644 194.83 408.86 194.727 409.214L194.427 410.234C194.323 410.587 194.523 410.954 194.877 411.044Z" fill="white"/>
</g>
<path d="M302.6 408.817C299.083 407.537 296.803 403.76 295.76 397.49C294.47 397.12 292.463 397.667 289.737 399.134C288.593 405.034 294.547 412.657 302.6 408.817Z" fill="#407BFF"/>
<path opacity="0.2" d="M302.6 408.817C299.083 407.537 296.803 403.76 295.76 397.49C294.47 397.12 292.463 397.667 289.737 399.134C288.593 405.034 294.547 412.657 302.6 408.817Z" fill="black"/>
<path d="M287.973 414.947C300.473 411.507 307.98 409.44 310.486 408.75C314.25 407.713 308.856 402.697 302.063 406.867C295.27 411.033 290.65 404.343 290.44 398.237C285.75 398.443 282.993 399.454 282.17 401.27C285.187 406.25 287.58 410.987 287.973 414.947Z" fill="#407BFF"/>
<path d="M288.84 416.42L311.71 410.124C312.073 410.024 312.29 409.654 312.19 409.304L311.903 408.287C311.803 407.937 311.427 407.73 311.063 407.83L288.193 414.127C287.83 414.227 287.613 414.597 287.713 414.947L288 415.964C288.1 416.314 288.477 416.52 288.84 416.42Z" fill="#407BFF"/>
<path opacity="0.502" d="M288.84 416.42L311.71 410.124C312.073 410.024 312.29 409.654 312.19 409.304L311.903 408.287C311.803 407.937 311.427 407.73 311.063 407.83L288.193 414.127C287.83 414.227 287.613 414.597 287.713 414.947L288 415.964C288.1 416.314 288.477 416.52 288.84 416.42Z" fill="white"/>
<path d="M249.397 279.987C251.937 288.32 255.117 297.483 259.123 307.363C258.363 319.637 268.64 380.007 281.217 403.8C285.623 398.87 297.157 400.65 299.087 398.237C291.363 374.973 282.72 330.533 280.67 306.287C279.303 290.123 276.283 263.073 271.607 225.13L239.683 224.697C239.143 238.423 242.383 256.853 249.397 279.987Z" fill="#14152E"/>
<path d="M195.283 395.88C201.287 398.604 213.53 400.653 214.55 398.747C216.467 387.45 236.543 327.633 239.67 317.33C242.1 309.333 246.763 290.967 249.397 279.987C253.67 262.213 258.28 243.787 263.227 224.697H234.723C226.837 233.643 221.573 263.493 218.933 314.25C213.79 323.313 197.467 384.1 195.283 395.88Z" fill="#14152E"/>
<path d="M241.046 145.177C242.57 150.814 244.443 161.147 240.78 164.911C242.346 168.931 247.6 170.671 256.53 170.127C263.05 169.731 263.643 167.991 258.303 164.911C251.906 163.407 251.72 158.744 252.49 154.361L241.046 145.177Z" fill="#FF8B7B"/>
<path opacity="0.2" d="M245.71 148.923L252.483 154.357C252.297 155.393 252.17 156.443 252.173 157.467C249.747 157.12 246.25 154.483 245.807 151.967C245.587 150.713 245.55 149.507 245.71 148.923Z" fill="black"/>
<path d="M236.23 133.857C237.943 142.964 238.473 146.844 243.67 151.211C251.483 157.781 262.22 154.304 263.246 145.021C264.17 136.667 261.216 123.181 251.836 120.174C242.593 117.214 234.52 124.754 236.23 133.857Z" fill="#FF8B7B"/>
<path d="M250.653 135.377C250.763 136.147 251.253 136.74 251.746 136.704C252.24 136.667 252.55 136.014 252.44 135.244C252.33 134.474 251.84 133.877 251.346 133.914C250.853 133.95 250.543 134.604 250.653 135.377Z" fill="#263238"/>
<path d="M259.953 134.827C260.063 135.597 260.553 136.193 261.047 136.157C261.54 136.12 261.85 135.467 261.74 134.697C261.63 133.924 261.14 133.33 260.647 133.367C260.153 133.404 259.843 134.057 259.953 134.827Z" fill="#263238"/>
<path d="M260.433 133.424L262.17 132.757C261.69 133.767 261.11 133.99 260.433 133.424Z" fill="#263238"/>
<path d="M257.546 136.28C258.72 138.43 259.85 140.004 260.943 141C260.37 141.68 259.496 141.92 258.326 141.714L257.546 136.28Z" fill="#FF5652"/>
<path d="M254.397 144.88C254.797 144.923 255.224 144.93 255.677 144.897C255.8 144.89 255.884 144.78 255.867 144.657C255.85 144.53 255.737 144.437 255.614 144.447C252.304 144.69 250.417 142.443 250.397 142.42C250.314 142.32 250.174 142.3 250.08 142.377C249.987 142.45 249.98 142.593 250.06 142.693C250.134 142.78 251.654 144.593 254.397 144.88Z" fill="#263238"/>
<path d="M234.29 141.014C235.37 142.8 236.987 143.824 238.423 144.084C240.58 144.474 241.3 141.977 240.403 139.617C239.593 137.49 237.497 134.727 235.477 135.417C233.487 136.1 233.057 138.97 234.29 141.014Z" fill="#FF8B7B"/>
<path d="M239.973 128.504C245.716 131.374 238.15 140.304 243.193 141.327C245.47 141.787 246.5 140.93 246.283 138.75C251.783 142.334 250.85 145.997 243.49 149.744C231.466 155.86 219.676 139.197 231.163 124.64C226.606 119.047 249.833 113.064 256.756 117.86C263.406 122.464 256.806 127.604 251.72 126.77C253.293 126.027 253.49 123.454 251.133 124.84C248.773 126.23 245.966 128.95 239.973 128.504Z" fill="#263238"/>
<path d="M248.24 131.471C248.356 131.454 248.466 131.391 248.533 131.287C249.593 129.667 251.256 129.727 251.276 129.727C251.523 129.737 251.723 129.551 251.72 129.301C251.713 129.054 251.503 128.844 251.253 128.831C251.166 128.827 249.076 128.751 247.763 130.764C247.63 130.964 247.696 131.244 247.91 131.387C248.013 131.457 248.13 131.484 248.24 131.471Z" fill="#263238"/>
<path d="M261.72 128.837C261.833 128.844 261.943 128.81 262.03 128.734C262.21 128.577 262.216 128.294 262.046 128.1C260.33 126.17 258.28 126.374 258.193 126.384C257.95 126.41 257.786 126.634 257.833 126.88C257.88 127.127 258.113 127.307 258.356 127.28C258.436 127.27 260.03 127.137 261.393 128.674C261.483 128.77 261.6 128.827 261.72 128.837Z" fill="#263238"/>
<path d="M251.133 133.974L252.87 133.307C252.39 134.317 251.81 134.537 251.133 133.974Z" fill="#263238"/>
<path d="M277.106 219.994C277.02 199.55 275.62 181.96 275.503 178.39C275.34 173.37 272.533 169.53 268.116 167.294C270.556 160.997 273.183 153.3 271.313 148.924C258.393 145.954 237.656 146.2 228.24 150.707C224.726 152.39 225.593 156.13 230.84 161.92C227.893 163.06 227.533 164.767 229.766 167.04C225.433 169.934 222.643 173.607 221.113 187.764C218.53 211.657 203.746 333.637 202.973 343.867C235.57 347.627 285.896 334.08 289.596 331.39C289.53 319.514 277.253 255.64 277.106 219.994Z" fill="#2A59C0"/>
<path d="M227.72 157.547C232.97 155.837 238.36 154.944 243.947 155.407C245.67 155.55 251.447 156.32 253.37 160.227C255.17 163.887 252.36 167.977 250.103 171.264C249.713 171.83 249.337 172.377 249 172.897C246.133 177.334 244.07 182.414 243.037 187.594C242.397 190.797 242.847 193.064 244.373 194.327C245.297 195.094 246.433 195.344 247.613 195.344C248.497 195.344 249.403 195.204 250.26 195.03C259.5 193.17 267.877 189.16 275.853 184.52C275.83 184.177 275.81 183.844 275.793 183.524C267.767 188.22 259.35 192.29 250.087 194.157C248.29 194.52 246.27 194.74 244.943 193.64C243.687 192.604 243.34 190.627 243.91 187.767C244.923 182.697 246.943 177.724 249.75 173.38C250.08 172.867 250.45 172.327 250.837 171.767C253.227 168.29 256.197 163.96 254.17 159.834C252.04 155.507 245.863 154.674 244.02 154.52C238.247 154.04 232.697 154.974 227.307 156.75C227.437 157.02 227.577 157.287 227.72 157.547Z" fill="white"/>
<path d="M226.103 223.384C227.86 222.264 229.616 221.144 231.376 220.044C241.91 213.457 253.21 206.887 265.356 205.247C268.716 204.794 271.376 204.874 273.726 205.497C274.896 205.807 275.926 206.31 276.883 206.924C276.873 206.564 276.863 206.21 276.85 205.854C275.963 205.337 275.006 204.917 273.956 204.637C271.486 203.98 268.716 203.894 265.236 204.364C252.916 206.03 241.52 212.65 230.906 219.287C229.14 220.39 227.383 221.51 225.623 222.63C222.586 224.564 219.52 226.513 216.403 228.39C216.356 228.763 216.313 229.13 216.27 229.507C219.6 227.52 222.866 225.444 226.103 223.384Z" fill="white"/>
<path d="M262.587 246.263C262.29 247.273 261.984 248.313 261.777 249.37C261.467 250.937 261.02 254.837 263.55 257.18C264.857 258.387 266.79 259 269.464 259.053C272.974 259.127 276.444 258.56 279.87 257.64C279.837 257.34 279.8 257.04 279.767 256.74C276.367 257.66 272.937 258.227 269.48 258.163C267.037 258.113 265.294 257.577 264.157 256.523C261.954 254.487 262.37 250.963 262.65 249.54C262.85 248.527 263.15 247.503 263.44 246.513C263.887 244.993 264.35 243.42 264.48 241.793C264.777 238.12 263.26 234.307 260.52 231.844C254.77 226.674 246.477 228.82 239.124 231.6C236.74 232.504 234.327 233.467 231.994 234.397C226.454 236.61 220.78 238.857 214.97 240.51C214.93 240.83 214.894 241.147 214.857 241.467C220.834 239.794 226.647 237.49 232.324 235.227C234.654 234.297 237.064 233.334 239.44 232.437C246.54 229.747 254.53 227.657 259.924 232.507C262.464 234.787 263.867 238.32 263.594 241.723C263.467 243.257 263.02 244.787 262.587 246.263Z" fill="white"/>
<path d="M233.81 289.934L234.063 289.36C234.707 287.907 235.34 286.41 235.98 284.894C239.263 277.117 242.66 269.077 248.64 263.467C250.427 261.797 252.047 260.964 253.597 260.924C256.583 260.83 258.76 263.657 259.55 264.87C260.113 265.737 260.613 266.68 261.097 267.59C261.84 268.99 262.607 270.44 263.65 271.694C266 274.534 269.753 276.194 273.433 276.054C276.737 275.92 279.433 274.497 281.703 272.364C281.653 271.994 281.607 271.624 281.557 271.254C279.327 273.507 276.667 275.03 273.397 275.164C269.983 275.304 266.513 273.754 264.337 271.127C263.353 269.94 262.607 268.534 261.883 267.174C261.393 266.244 260.883 265.284 260.297 264.384C259.423 263.047 257.023 259.924 253.573 260.034C251.797 260.077 249.983 260.99 248.033 262.817C241.91 268.554 238.477 276.684 235.157 284.547C234.52 286.057 233.89 287.55 233.25 289L232.997 289.574C229.507 297.484 225.167 307.33 217.257 311.614C214.683 313.007 211.88 313.237 209.76 312.23C208.603 311.68 207.663 310.884 206.763 309.99C206.72 310.36 206.677 310.73 206.633 311.097C207.447 311.847 208.33 312.537 209.377 313.037C211.753 314.164 214.857 313.927 217.683 312.397C225.86 307.967 230.27 297.967 233.81 289.934Z" fill="white"/>
<path d="M287.37 312.107C285.153 314.327 282.697 315.997 280.04 316.427C274.657 317.304 273.303 312.39 272.003 307.644C271.407 305.46 270.843 303.4 269.9 301.934C268.2 299.287 265.85 297.717 262.917 297.26C257.327 296.397 250.79 299.857 246.887 303.084C235.593 312.434 225.167 325.3 216.737 340.293C215.953 341.683 215.2 343.097 214.463 344.517C214.793 344.517 215.127 344.52 215.46 344.517C216.13 343.243 216.81 341.98 217.513 340.73C225.89 325.83 236.243 313.05 247.457 303.77C251.213 300.66 257.483 297.317 262.78 298.14C265.45 298.557 267.593 299.994 269.15 302.414C270.02 303.767 270.567 305.764 271.143 307.88C272.483 312.767 273.993 318.307 280.183 317.307C282.85 316.874 285.31 315.31 287.527 313.204C287.477 312.84 287.423 312.477 287.37 312.107Z" fill="white"/>
<path opacity="0.2" d="M219.366 203.154C217.663 217.82 215.14 239.047 212.583 260.614C214.963 261.434 217.76 262.244 221.04 263.064C223.01 221.99 229.693 189.884 230.066 188.01L219.366 203.154Z" fill="black"/>
<path opacity="0.2" d="M236.56 250.667C234.183 256.904 226.163 261.73 222.227 261.954C226.633 255.83 231.41 252.067 236.56 250.667Z" fill="black"/>
<path opacity="0.2" d="M269.523 330.164C269.483 329.594 265.767 272.794 266.553 245.561C267.35 217.754 264.443 171.857 262.997 168.387L262.943 168.261L262.97 168.127C263.71 164.437 264.823 158.861 264.447 149.967L265.34 149.927C265.717 158.831 264.617 164.447 263.87 168.181C265.35 172.604 268.237 218.011 267.443 245.587C266.66 272.777 270.373 329.534 270.413 330.104L269.523 330.164Z" fill="black"/>
<path d="M241.466 187.324L240.593 188.037L239.63 188.857C238.986 189.42 238.35 190 237.716 190.587C236.45 191.757 235.203 192.96 233.986 194.18C231.56 196.634 229.263 199.177 227.2 201.79C225.133 204.387 223.273 207.057 221.853 209.654C220.396 212.21 219.47 214.787 219.24 216.484L219.406 214.55C219.46 215.754 219.606 217.05 219.906 218.4C220.2 219.754 220.656 221.177 221.176 222.614C222.243 225.5 223.786 228.454 225.573 231.357C227.376 234.257 229.47 237.104 231.74 239.83C232.876 241.194 234.083 242.51 235.3 243.797C235.91 244.437 236.526 245.067 237.143 245.677L238.073 246.554L238.526 246.964C238.653 247.07 238.85 247.254 238.873 247.25L219.636 265.814C219.316 265.45 219.173 265.264 218.96 265.007L218.403 264.307L217.343 262.94C216.646 262.04 215.973 261.144 215.31 260.24C213.986 258.437 212.733 256.597 211.5 254.74C209.04 251.014 206.71 247.18 204.613 243.09C202.496 239.02 200.626 234.697 199.14 230C197.67 225.31 196.66 220.154 196.676 214.55V214.36C196.68 213.78 196.743 213.164 196.843 212.617C197.383 209.754 198.236 207.244 199.196 204.944C200.17 202.654 201.223 200.534 202.373 198.584C204.663 194.657 207.17 191.2 209.76 187.92C212.373 184.664 215.06 181.594 217.84 178.644C219.22 177.164 220.626 175.714 222.063 174.287L224.25 172.157L225.366 171.084L226.6 169.937L241.466 187.324Z" fill="#2A59C0"/>
<path d="M221.253 175.123C221.633 175.543 221.97 176.01 222.226 176.537C224.026 180.193 221.22 184.283 218.96 187.57C218.57 188.14 218.196 188.687 217.86 189.207C214.993 193.64 212.93 198.723 211.896 203.9C211.256 207.107 211.706 209.373 213.233 210.637C214.156 211.4 215.293 211.653 216.473 211.653C217.356 211.653 218.263 211.51 219.12 211.34C219.823 211.197 220.516 211.033 221.21 210.87C221.386 210.52 221.566 210.17 221.763 209.817C220.833 210.053 219.893 210.273 218.943 210.463C217.15 210.827 215.13 211.05 213.8 209.95C212.546 208.91 212.196 206.933 212.77 204.073C213.783 199.007 215.803 194.03 218.606 189.69C218.94 189.177 219.31 188.637 219.696 188.077C222.086 184.597 225.056 180.27 223.026 176.143C222.72 175.517 222.323 174.973 221.87 174.487C221.66 174.693 221.463 174.913 221.253 175.123Z" fill="white"/>
<path d="M205.82 210.05C204.793 207.057 201.853 205.34 199.44 204.4C199.36 204.583 199.277 204.76 199.197 204.943C199.16 205.033 199.127 205.127 199.09 205.217C201.34 206.083 204.057 207.65 204.977 210.34C206.297 214.197 202.993 217.897 200.337 220.87C199.877 221.383 199.437 221.88 199.037 222.35C198.553 222.923 198.087 223.517 197.633 224.12C197.71 224.513 197.797 224.9 197.883 225.29C198.47 224.48 199.077 223.687 199.717 222.927C200.11 222.46 200.547 221.973 201 221.463C203.81 218.317 207.31 214.4 205.82 210.05Z" fill="white"/>
<path d="M227.83 234.73C220.296 238.107 212.543 241.123 204.396 242.653C204.47 242.797 204.54 242.947 204.613 243.09C204.683 243.223 204.756 243.35 204.823 243.483C213.016 241.91 220.796 238.867 228.353 235.473C228.173 235.227 228.006 234.977 227.83 234.73Z" fill="white"/>
<path d="M309.093 237.657C304.297 237.657 299.687 234.957 297.493 230.351C297.17 229.677 297.457 228.871 298.13 228.551C298.803 228.231 299.607 228.514 299.93 229.187C302.33 234.227 308.387 236.374 313.43 233.974C318.47 231.571 320.617 225.514 318.213 220.474L241.327 59.1205C241.007 58.4472 241.293 57.6405 241.967 57.3205C242.64 57.0005 243.447 57.2839 243.767 57.9572L320.653 219.314C323.693 225.697 320.977 233.367 314.59 236.411C312.813 237.257 310.94 237.657 309.093 237.657Z" fill="#14152E"/>
<path d="M246.16 66.1236C295.2 42.7569 345.647 46.2569 354.38 64.5836L176.797 149.2C168.063 130.874 197.123 89.4902 246.16 66.1236Z" fill="#2A59C0"/>
<path opacity="0.2" d="M252.123 63.4204C250.553 69.4604 247.593 75.2404 240.753 77.0904C237.063 78.0804 232.423 77.6304 229.693 80.1104C228.403 81.2904 227.603 82.8104 227.023 84.3804C224.473 91.1904 225.443 99.1704 226.573 106.55C227.493 112.5 228.703 118.51 228.853 124.39L215.503 130.76C214.813 129.98 214.183 129.16 213.603 128.33C211.953 125.97 210.023 122.21 206.443 121.89C203.743 121.65 201.523 123.55 200.303 125.24C197.293 129.44 196.503 134.47 196.643 139.74L176.793 149.2C168.063 130.87 197.123 89.4904 246.163 66.1204C248.153 65.1704 250.133 64.2704 252.123 63.4204Z" fill="white"/>
<path opacity="0.2" d="M354.373 64.5803L246.853 115.81C246.183 111.72 245.803 107.56 247.023 103.88C247.393 102.77 247.993 101.65 249.183 101.13C250.743 100.44 252.853 100.99 254.543 101.85C256.243 102.71 257.753 103.88 259.533 104.58C261.923 105.53 264.673 105.53 266.763 104.57C271.343 102.48 271.013 97.0203 270.433 92.8903C269.463 85.8803 267.783 78.7703 268.583 71.9503C269.373 65.2103 272.863 59.0503 280.123 56.3003C282.913 55.2403 286.083 54.7303 288.563 53.2703C289.263 52.8603 289.883 52.3903 290.433 51.8603C322.223 46.3003 348.323 51.8803 354.373 64.5803Z" fill="white"/>
<path d="M330.16 48.0436C330.13 48.0436 330.103 48.0403 330.073 48.0336C329.876 47.9869 329.756 47.7903 329.803 47.5936L330.456 44.8236C330.503 44.627 330.7 44.5036 330.896 44.5536C331.093 44.6003 331.213 44.7969 331.166 44.9936L330.513 47.7636C330.473 47.9303 330.323 48.0436 330.16 48.0436Z" fill="#407BFF"/>
<path d="M331.936 48.9337C331.84 48.9337 331.74 48.8937 331.67 48.8171C331.53 48.667 331.54 48.437 331.686 48.297L333.246 46.8504C333.393 46.7104 333.623 46.7204 333.763 46.867C333.9 47.017 333.893 47.247 333.743 47.3837L332.186 48.8337C332.116 48.9004 332.026 48.9337 331.936 48.9337Z" fill="#407BFF"/>
<path d="M328.17 48.0434C328.02 48.0434 327.883 47.9534 327.827 47.8034L327.247 46.2467C327.173 46.0567 327.27 45.8467 327.46 45.7767C327.65 45.7067 327.86 45.8034 327.93 45.9934L328.513 47.55C328.583 47.7367 328.487 47.95 328.297 48.02C328.257 48.0367 328.213 48.0434 328.17 48.0434Z" fill="#407BFF"/>
<path d="M172.597 131.12C172.543 131.12 172.487 131.11 172.437 131.083L169.873 129.847C169.69 129.76 169.613 129.54 169.703 129.36C169.79 129.177 170.007 129.1 170.19 129.19L172.753 130.423C172.937 130.513 173.013 130.73 172.927 130.913C172.863 131.043 172.73 131.12 172.597 131.12Z" fill="#407BFF"/>
<path d="M173.847 129.577C173.72 129.577 173.6 129.51 173.53 129.393L172.453 127.56C172.35 127.387 172.407 127.163 172.58 127.06C172.757 126.957 172.98 127.017 173.083 127.19L174.16 129.023C174.263 129.197 174.207 129.423 174.033 129.523C173.973 129.56 173.91 129.577 173.847 129.577Z" fill="#407BFF"/>
<path d="M170.52 133.293C170.34 133.293 170.183 133.16 170.157 132.98C170.13 132.78 170.267 132.593 170.467 132.567L172.113 132.333C172.317 132.307 172.5 132.443 172.527 132.643C172.557 132.843 172.417 133.03 172.217 133.057L170.57 133.29C170.553 133.293 170.537 133.293 170.52 133.293Z" fill="#407BFF"/>
<path d="M267.93 55.2704C267.93 55.2704 267.93 55.2704 267.927 55.2704C267.76 55.2704 267.623 55.1304 267.627 54.9638L267.64 52.5904C267.64 52.4238 267.777 52.2871 267.947 52.2871C268.117 52.2871 268.253 52.4271 268.25 52.5938L268.236 54.9671C268.233 55.1338 268.096 55.2704 267.93 55.2704Z" fill="#407BFF"/>
<path d="M269.539 55.6603C269.483 55.6603 269.423 55.6436 269.369 55.6069C269.229 55.5136 269.193 55.3236 269.289 55.1836L270.286 53.7169C270.379 53.5769 270.566 53.5403 270.709 53.6336C270.849 53.7303 270.883 53.9203 270.789 54.0603L269.793 55.5269C269.733 55.6136 269.639 55.6603 269.539 55.6603Z" fill="#407BFF"/>
<path d="M266.313 55.6406C266.217 55.6406 266.117 55.5906 266.06 55.504L265.297 54.344C265.203 54.2039 265.243 54.014 265.383 53.924C265.523 53.8306 265.713 53.8673 265.807 54.0106L266.57 55.1673C266.66 55.3073 266.623 55.4973 266.483 55.5906C266.43 55.624 266.373 55.6406 266.313 55.6406Z" fill="#407BFF"/>
<path d="M212.37 81.0134C212.26 81.0134 212.147 80.9601 212.077 80.8634L210.393 78.5668C210.273 78.4034 210.307 78.1768 210.47 78.0568C210.633 77.9368 210.863 77.9734 210.983 78.1334L212.667 80.4301C212.787 80.5934 212.75 80.8201 212.587 80.9401C212.523 80.9901 212.447 81.0134 212.37 81.0134Z" fill="#407BFF"/>
<path d="M214.2 80.2336C214.006 80.2336 213.843 80.0803 213.836 79.8836L213.743 77.757C213.733 77.557 213.89 77.387 214.093 77.377C214.306 77.377 214.463 77.5236 214.473 77.7269L214.566 79.8536C214.576 80.0536 214.42 80.227 214.216 80.2336C214.21 80.2336 214.206 80.2336 214.2 80.2336Z" fill="#407BFF"/>
<path d="M211.08 82.5236C211.037 82.5236 210.997 82.517 210.953 82.5003L209.393 81.9336C209.203 81.867 209.103 81.657 209.173 81.467C209.243 81.277 209.45 81.177 209.643 81.247L211.203 81.8136C211.393 81.8836 211.493 82.0936 211.423 82.2836C211.37 82.4303 211.23 82.5236 211.08 82.5236Z" fill="#407BFF"/>
<path d="M294.973 71.1935C294.943 71.1935 294.913 71.1902 294.886 71.1835C294.69 71.1335 294.57 70.9368 294.62 70.7402L295.31 67.9802C295.36 67.7835 295.56 67.6635 295.756 67.7135C295.953 67.7635 296.07 67.9602 296.02 68.1568L295.33 70.9168C295.286 71.0835 295.136 71.1935 294.973 71.1935Z" fill="white"/>
<path d="M296.74 72.1068C296.64 72.1068 296.54 72.0668 296.47 71.9868C296.334 71.8368 296.344 71.6068 296.494 71.4701L298.074 70.0435C298.224 69.9068 298.454 69.9168 298.59 70.0668C298.724 70.2168 298.714 70.4501 298.564 70.5868L296.987 72.0135C296.917 72.0768 296.827 72.1068 296.74 72.1068Z" fill="white"/>
<path d="M292.987 71.1669C292.837 71.1669 292.697 71.0735 292.64 70.9235L292.08 69.3602C292.014 69.1669 292.114 68.9602 292.304 68.8902C292.494 68.8235 292.704 68.9202 292.77 69.1102L293.33 70.6769C293.4 70.8669 293.3 71.0769 293.11 71.1435C293.07 71.1602 293.027 71.1669 292.987 71.1669Z" fill="white"/>
<path d="M206.337 102.574C206.217 102.574 206.1 102.517 206.03 102.41L204.453 100.04C204.34 99.8736 204.387 99.647 204.553 99.5336C204.723 99.4203 204.95 99.467 205.063 99.637L206.64 102.004C206.75 102.174 206.707 102.4 206.537 102.514C206.477 102.554 206.403 102.574 206.337 102.574Z" fill="white"/>
<path d="M208.196 101.88C207.993 101.88 207.83 101.713 207.833 101.513L207.836 99.3834C207.836 99.1834 208 99.02 208.203 99.02C208.406 99.02 208.57 99.1834 208.57 99.3867L208.563 101.513C208.563 101.717 208.4 101.88 208.196 101.88Z" fill="white"/>
<path d="M204.976 104.023C204.93 104.023 204.88 104.016 204.836 103.996L203.3 103.36C203.113 103.28 203.026 103.066 203.103 102.88C203.18 102.693 203.396 102.606 203.583 102.683L205.116 103.32C205.303 103.396 205.39 103.613 205.313 103.8C205.256 103.94 205.12 104.023 204.976 104.023Z" fill="white"/>
<g opacity="0.4">
<path opacity="0.4" d="M263.796 415.2C261.846 415.34 259.626 415.43 257.276 415.46C256.436 415.47 255.566 415.48 254.696 415.46C253.226 415.46 251.726 415.43 250.226 415.37C247.356 415.26 244.616 415.18 242.136 415.1C239.186 414.99 236.606 414.85 234.566 414.58C234.286 414.54 233.906 414.47 233.476 414.38C232.596 414.18 231.516 413.88 230.696 413.58C229.706 413.21 229.116 412.82 229.736 412.58C230.196 412.4 230.786 412.24 231.476 412.08C232.466 411.86 233.656 411.66 234.976 411.48C237.786 411.11 241.166 410.87 244.356 410.81C246.476 410.76 248.516 410.8 250.226 410.93C252.756 411.13 254.936 411.22 256.856 411.28C257.766 411.31 258.606 411.33 259.406 411.35C261.876 411.41 263.866 411.45 265.626 411.67C267.456 411.89 269.046 412.32 270.676 413.15C272.466 414.06 269.186 414.83 263.796 415.2Z" fill="#407BFF"/>
<path opacity="0.4" d="M237.847 418.64C237.687 419.02 236.157 419.32 232.477 419.31C231.947 419.31 231.427 419.3 230.937 419.29C229.727 419.26 228.667 419.2 227.847 419.11C226.697 418.98 226.017 418.81 226.097 418.62C226.177 418.43 227.037 418.25 228.347 418.13C229.257 418.05 230.387 417.99 231.627 417.96C232.087 417.95 232.567 417.95 233.057 417.95C236.737 417.95 238.007 418.26 237.847 418.64Z" fill="#407BFF"/>
<path opacity="0.502" d="M256.857 411.28L254.697 415.46C253.227 415.46 251.727 415.43 250.227 415.37C247.357 415.26 244.617 415.18 242.137 415.1L244.357 410.81C246.477 410.76 248.517 410.8 250.227 410.93C252.757 411.13 254.937 411.22 256.857 411.28Z" fill="white"/>
<path opacity="0.502" d="M265.627 411.67L263.797 415.2C261.847 415.34 259.627 415.43 257.277 415.46L259.407 411.35C261.877 411.41 263.867 411.45 265.627 411.67Z" fill="white"/>
<path opacity="0.502" d="M231.627 417.96L230.937 419.29C229.727 419.26 228.667 419.2 227.847 419.11L228.347 418.13C229.257 418.05 230.387 417.99 231.627 417.96Z" fill="white"/>
<path opacity="0.502" d="M234.977 411.48L233.477 414.38C232.597 414.18 231.517 413.88 230.697 413.58L231.477 412.08C232.467 411.86 233.657 411.66 234.977 411.48Z" fill="white"/>
</g>
<g opacity="0.4">
<path opacity="0.4" d="M363.424 411.446C330.257 411.473 307.544 416.183 332.637 419.09C357.734 421.996 364.47 419.09 361.897 416.58C359.32 414.07 411.294 416.573 399.244 413.28C387.454 410.053 373.257 411.436 363.424 411.446Z" fill="#407BFF"/>
<g opacity="0.502">
<path opacity="0.502" d="M370.25 411.31L368.097 415.48C371.27 415.34 375.313 415.29 379.487 415.266L381.613 411.166C377.667 411.096 373.813 411.213 370.25 411.31Z" fill="white"/>
<path opacity="0.502" d="M343.24 420.056C345.51 420.2 347.554 420.283 349.387 420.296L353.89 411.583C351.68 411.643 349.54 411.736 347.497 411.833L343.24 420.056Z" fill="white"/>
<path opacity="0.502" d="M333.027 419.143C335.144 419.38 337.117 419.583 338.974 419.736L342.92 412.106C340.577 412.273 338.39 412.45 336.37 412.663L333.027 419.143Z" fill="white"/>
</g>
</g>
</svg>
