<svg width="300" height="300" viewBox="0 0 300 300" fill="none" xmlns="http://www.w3.org/2000/svg">
<path d="M267.188 203.198V135.937C267.188 122.995 256.692 112.5 243.75 112.5C230.808 112.5 220.313 122.995 220.313 135.937V203.198C205.064 212.034 195.221 229.172 197.105 248.456C199.224 270.155 216.736 287.93 238.402 290.33C266.686 293.456 290.625 271.402 290.625 243.75C290.625 226.411 281.185 211.303 267.188 203.198V203.198Z" fill="black"/>
<path d="M248.438 182.813C248.438 157.828 239.635 135.553 225.877 120.942C222.455 125.016 220.313 130.2 220.313 135.938V203.198C205.064 212.034 195.221 229.172 197.105 248.456C197.522 252.75 198.567 256.875 200.105 260.775C227.71 253.177 248.438 221.17 248.438 182.813Z" fill="#1C1C1C"/>
<path d="M84.375 75C102.497 75 117.188 60.3093 117.188 42.1875C117.188 24.0657 102.497 9.375 84.375 9.375C66.2532 9.375 51.5625 24.0657 51.5625 42.1875C51.5625 60.3093 66.2532 75 84.375 75Z" fill="#F5B953"/>
<path d="M267.188 46.875C265.505 46.875 263.873 47.0672 262.289 47.4047C260.203 26.0578 242.208 9.375 220.312 9.375C198.417 9.375 180.422 26.0578 178.336 47.4047C176.752 47.0672 175.12 46.875 173.438 46.875C160.495 46.875 150 57.3703 150 70.3125C150 83.2547 160.495 93.75 173.438 93.75C181.486 93.75 188.583 89.6859 192.802 83.5031C200.189 89.8734 209.789 93.75 220.312 93.75C230.836 93.75 240.436 89.8734 247.823 83.5031C252.042 89.6859 259.139 93.75 267.188 93.75C280.13 93.75 290.625 83.2547 290.625 70.3125C290.625 57.3703 280.13 46.875 267.188 46.875Z" fill="#A1CDFB"/>
<path d="M196.875 65.625C195.192 65.625 193.561 65.8172 191.977 66.1547C189.891 44.8078 171.895 28.125 150 28.125C128.105 28.125 110.109 44.8078 108.023 66.1547C106.439 65.8172 104.808 65.625 103.125 65.625C90.1828 65.625 79.6875 76.1203 79.6875 89.0625C79.6875 102.005 90.1828 112.5 103.125 112.5C111.173 112.5 118.27 108.436 122.489 102.253C129.877 108.623 139.477 112.5 150 112.5C160.523 112.5 170.123 108.623 177.511 102.253C181.73 108.436 188.827 112.5 196.875 112.5C209.817 112.5 220.312 102.005 220.312 89.0625C220.312 76.1203 209.817 65.625 196.875 65.625Z" fill="#C7E2FC"/>
<path d="M51.5625 103.125H60.9375V196.875H51.5625V103.125Z" fill="#C7E2FC"/>
<path d="M56.2496 135.937C55.0496 135.937 53.8496 135.478 52.9355 134.564L34.1855 115.814L40.8137 109.186L56.2496 124.622L71.6855 109.186L78.3137 115.814L59.5637 134.564C58.6496 135.478 57.4496 135.937 56.2496 135.937Z" fill="#C7E2FC"/>
<path d="M71.6855 190.814L56.2496 175.378L40.8137 190.814L34.1855 184.186L52.9355 165.436C54.7684 163.603 57.7309 163.603 59.5637 165.436L78.3137 184.186L71.6855 190.814Z" fill="#C7E2FC"/>
<path d="M9.375 145.312H103.125V154.688H9.375V145.312Z" fill="#C7E2FC"/>
<path d="M22.0637 172.064L15.4355 165.436L30.8715 150L15.4355 134.564L22.0637 127.936L40.8137 146.686C42.6465 148.519 42.6465 151.481 40.8137 153.314L22.0637 172.064Z" fill="#C7E2FC"/>
<path d="M90.4356 172.064L71.6856 153.314C69.8528 151.481 69.8528 148.519 71.6856 146.686L90.4356 127.936L97.0638 134.564L81.6278 150L97.0638 165.436L90.4356 172.064Z" fill="#C7E2FC"/>
<path d="M98.4375 196.875H107.812V290.625H98.4375V196.875Z" fill="#C7E2FC"/>
<path d="M103.126 229.688C101.926 229.688 100.726 229.228 99.8115 228.314L81.0615 209.564L87.6897 202.936L103.126 218.372L118.562 202.936L125.19 209.564L106.44 228.314C105.526 229.228 104.326 229.688 103.126 229.688Z" fill="#C7E2FC"/>
<path d="M118.562 284.564L103.126 269.128L87.6897 284.564L81.0615 277.936L99.8115 259.186C101.644 257.353 104.607 257.353 106.44 259.186L125.19 277.936L118.562 284.564Z" fill="#C7E2FC"/>
<path d="M56.25 239.062H150V248.438H56.25V239.062Z" fill="#C7E2FC"/>
<path d="M68.9387 265.814L62.3105 259.186L77.7465 243.75L62.3105 228.314L68.9387 221.686L87.6887 240.436C89.5215 242.269 89.5215 245.231 87.6887 247.064L68.9387 265.814Z" fill="#C7E2FC"/>
<path d="M137.311 265.814L118.561 247.064C116.728 245.231 116.728 242.269 118.561 240.436L137.311 221.686L143.939 228.314L128.503 243.75L143.939 259.186L137.311 265.814Z" fill="#C7E2FC"/>
<path d="M243.75 276.562V267.188C256.673 267.188 267.188 256.673 267.188 243.75H276.562C276.562 261.844 261.844 276.562 243.75 276.562Z" fill="white"/>
<path d="M220.312 243.75H210.938C210.938 227.245 223.181 213.553 239.062 211.27V126.562H248.438V215.625C248.438 218.212 246.337 220.312 243.75 220.312C230.827 220.312 220.312 230.827 220.312 243.75Z" fill="white"/>
<path d="M187.5 126.562H206.25V135.938H187.5V126.562Z" fill="black"/>
<path d="M187.5 145.312H206.25V154.688H187.5V145.312Z" fill="black"/>
<path d="M187.5 164.062H206.25V173.438H187.5V164.062Z" fill="black"/>
<path d="M187.5 182.812H206.25V192.188H187.5V182.812Z" fill="black"/>
</svg>
